<?xml version="1.0" encoding="iso-8859-1"?>
<!-- Generator: Adobe Illustrator 19.0.0, SVG Export Plug-In . SVG Version: 6.00 Build 0)  -->
<svg version="1.1" id="Layer_1" xmlns="http://www.w3.org/2000/svg" xmlns:xlink="http://www.w3.org/1999/xlink" x="0px" y="0px"
	 viewBox="0 0 512 512" style="enable-background:new 0 0 512 512;" xml:space="preserve">
<circle style="fill:#FF3C62;" cx="256" cy="255.996" r="255.996"/>
<path style="fill:#E7001F;" d="M511.247,275.813L286.508,51.075c-2.15-3.836-6.254-6.446-10.941-6.446H236.44
	c-6.896,0-12.539,5.642-12.539,12.539v27.776l6.863,4.848c0,0,0,67.734,0,73.334c0,11.038-3.373,9.875-20.843,27.583
	c-15.415,15.624-21.876,21.716-21.876,36.743c0,15.029,0,196.034,0,211.184c0,11.598,1.772,22.271,9.143,26.641l46.419,46.419
	c4.108,0.196,8.241,0.303,12.399,0.303C390.722,512,501.134,407.939,511.247,275.813z"/>
<path style="fill:#00C379;" d="M302.088,190.708c-17.47-17.708-20.843-16.544-20.843-27.583c0-13.942,0-85.105,0-85.105h-50.48
	c0,0,0,71.163,0,85.105c0,11.038-3.373,9.875-20.843,27.583c-15.415,15.624-21.876,21.716-21.876,36.744
	c0,15.029,0,196.034,0,211.184c0,15.151,3.012,28.734,17.596,28.734s86.143,0,100.728,0s17.596-13.583,17.596-28.734
	c0-15.151,0-196.156,0-211.184C323.963,212.424,317.502,206.332,302.088,190.708z"/>
<path style="fill:#00A652;" d="M302.088,190.708c-17.47-17.708-20.843-16.544-20.843-27.582c0-13.942,0-85.105,0-85.105H256v389.35
	c21.537,0,43.075,0,50.368,0c14.584,0,17.596-13.583,17.596-28.734c0-15.151,0-196.156,0-211.184S317.502,206.332,302.088,190.708z"
	/>
<rect x="188.041" y="261.179" style="fill:#FFFFFF;" width="135.918" height="127.016"/>
<rect x="256" y="261.179" style="fill:#D8D8DA;" width="67.959" height="127.016"/>
<rect x="188.041" y="277.552" style="fill:#FFEC97;" width="135.918" height="94.28"/>
<rect x="256" y="277.552" style="fill:#FFDF47;" width="67.959" height="94.28"/>
<path style="fill:#FFEC97;" d="M288.106,57.168c0-6.896-5.642-12.539-12.539-12.539H236.44c-6.896,0-12.539,5.642-12.539,12.539
	v27.776h6.863v35.787h50.48V84.944h6.863V57.168H288.106z"/>
<path style="fill:#FFDF47;" d="M281.244,120.731V84.944h6.863V57.168c0-6.896-5.642-12.539-12.539-12.539H256v76.102H281.244z"/>
<g>
</g>
<g>
</g>
<g>
</g>
<g>
</g>
<g>
</g>
<g>
</g>
<g>
</g>
<g>
</g>
<g>
</g>
<g>
</g>
<g>
</g>
<g>
</g>
<g>
</g>
<g>
</g>
<g>
</g>
</svg>
